<svg version="1.1" id="Layer_1" xmlns="http://www.w3.org/2000/svg" xmlns:xlink="http://www.w3.org/1999/xlink" x="0px" y="0px"
	 viewBox="144 -154 1100 1100" style="enable-background:new 144 -154 1100 1100;" xml:space="preserve">
<g fill="#999">
	<path d="M1158.7,53.6L816.3,396l342.4,342.4l0,0c15.7,15.7,25.3,37.3,25.3,61.1c0,47.7-38.7,86.5-86.5,86.5
		c-23.9,0-45.5-9.7-61.1-25.3l0,0L694,518.3L351.6,860.7l0,0C336,876.3,314.3,886,290.5,886c-47.8,0-86.5-38.7-86.5-86.5
		c0-23.9,9.7-45.5,25.3-61.1l0,0L571.7,396L229.3,53.6l0,0C213.7,38,204,16.3,204-7.5c0-47.8,38.7-86.5,86.5-86.5
		c23.9,0,45.5,9.7,61.1,25.3l0,0L694,273.7l342.4-342.4l0,0c15.6-15.6,37.3-25.3,61.1-25.3c47.8,0,86.5,38.7,86.5,86.5
		C1184,16.3,1174.3,38,1158.7,53.6L1158.7,53.6z"/>
</g>
</svg>
