<svg version="1.1" id="Layer_1" xmlns="http://www.w3.org/2000/svg" xmlns:xlink="http://www.w3.org/1999/xlink" x="0px" y="0px"
	 viewBox="-18 172 450 450" style="enable-background:new -18 172 450 450;" xml:space="preserve">
<g fill="#999">
	<path d="M226.7,289c0,10.9-8.8,19.7-19.7,19.7l0,0c-10.9,0-19.7-8.8-19.7-19.7v-96.6c0-10.9,8.8-19.7,19.7-19.7l0,0
		c10.8,0,19.7,8.8,19.7,19.7V289z"/>
	<path d="M226.7,601.6c0,10.9-8.8,19.7-19.7,19.7l0,0c-10.9,0-19.7-8.8-19.7-19.7V505c0-10.9,8.8-19.7,19.7-19.7l0,0
		c10.8,0,19.7,8.8,19.7,19.7V601.6L226.7,601.6z"/>
	<path d="M99,377.3c10.9,0,19.7,8.8,19.7,19.6l0,0c0,10.9-8.8,19.7-19.7,19.7H2.4c-10.9,0-19.7-8.8-19.7-19.7l0,0
		c0-10.9,8.8-19.6,19.7-19.6H99z"/>
	<path d="M411.6,377.3c10.9,0,19.7,8.8,19.7,19.6l0,0c0,10.9-8.8,19.7-19.7,19.7H315c-10.9,0-19.7-8.8-19.7-19.7l0,0
		c0-10.9,8.8-19.6,19.7-19.6H411.6z"/>
	<path d="M144.5,306.7c7.7,7.7,7.7,20.1,0,27.8l0,0c-7.7,7.7-20.2,7.7-27.9,0l-68.3-68.3c-7.7-7.7-7.7-20.1,0-27.9l0,0
		c7.7-7.7,20.1-7.7,27.8,0L144.5,306.7L144.5,306.7z"/>
	<path d="M365.6,527.8c7.7,7.7,7.7,20.2,0,27.9l0,0c-7.7,7.7-20.1,7.7-27.8-0.1l-68.3-68.3c-7.7-7.7-7.7-20.2,0-27.9l0,0
		c7.7-7.7,20.2-7.7,27.8,0L365.6,527.8L365.6,527.8z"/>
	<path d="M116.7,459.5c7.7-7.7,20.2-7.7,27.9,0l0,0c7.7,7.7,7.7,20.2,0,27.9l-68.3,68.3c-7.7,7.7-20.1,7.7-27.8-0.1l0,0
		c-7.7-7.7-7.7-20.1,0-27.8L116.7,459.5z"/>
	<path d="M337.8,238.4c7.7-7.7,20.1-7.7,27.8,0l0,0c7.7,7.7,7.7,20.2,0,27.9l-68.3,68.3c-7.7,7.7-20.2,7.7-27.8,0l0,0
		c-7.7-7.7-7.7-20.2,0-27.8L337.8,238.4L337.8,238.4z"/>
</g>
</svg>
